PathFileType	4	(X/Y/Z)	C:\Users\86182\Documents\cortex\Trimmed_M1_L9.trc
DataRate	CameraRate	NumFrames	NumMarkers	Units	OrigDataRate	OrigDataStartFrame	OrigNumFrames
100.00	100.00	       141	2	mm	100.00	181	       901
Frame#	Time	gripper			box			
		X1	Y1	Z1	X2	Y2	Z2	

181	1.800	199.14999	194.54573	231.93546	200.18098	194.42659	89.30451	
182	1.810	198.92656	194.53154	232.47136	200.12857	194.35667	89.84190	
183	1.820	198.93967	194.52632	232.77042	200.28937	194.41016	90.29520	
184	1.830	198.80025	194.47557	233.08476	200.14957	194.44476	90.73687	
185	1.840	198.95284	194.60333	233.54878	199.91031	194.45576	91.14330	
186	1.850	199.05711	194.56493	234.08633	200.03703	194.43527	91.39823	
187	1.860	198.93173	194.56355	234.55025	199.86063	194.34442	91.81818	
188	1.870	198.84842	194.46603	234.82916	200.15904	194.49947	92.30431	
189	1.880	198.90416	194.53560	235.19873	200.10075	194.59326	92.80554	
190	1.890	198.84904	194.55518	235.61084	199.86984	194.46602	93.11214	
191	1.900	198.93390	194.56735	236.16042	199.73743	194.42035	93.57488	
192	1.910	199.09445	194.58090	236.51334	199.96370	194.44833	94.05604	
193	1.920	199.17455	194.65601	236.92044	200.22716	194.47363	94.33194	
194	1.930	199.09396	194.57356	237.35101	200.21367	194.55038	94.87407	
195	1.940	198.93713	194.60652	237.75223	199.96040	194.54128	95.43500	
196	1.950	199.08629	194.70255	238.37323	200.03131	194.65608	95.95464	
197	1.960	199.21245	194.66167	238.92792	200.11510	194.65805	96.30399	
198	1.970	199.22264	194.61681	239.19923	200.18045	194.68854	96.53647	
199	1.980	199.14716	194.71307	239.61787	199.98557	194.74490	97.39690	
200	1.990	198.99042	194.66605	240.20491	200.06126	194.76170	97.82674	
201	2.000	198.95413	194.78064	240.65884	199.90599	194.82822	98.07774	
202	2.010	199.08693	194.70639	241.01630	199.82840	194.90598	98.40063	
203	2.020	199.18393	194.73578	241.39903	199.92850	194.81477	98.86358	
204	2.030	199.08562	194.71068	241.84648	199.80078	194.81372	99.38058	
205	2.040	198.99110	194.74109	242.22179	199.74808	194.84491	99.80846	
206	2.050	198.82591	194.77155	242.57741	199.59479	194.90909	100.33855	
207	2.060	198.99864	194.80638	243.06892	199.63982	194.82626	100.56738	
208	2.070	199.02354	194.75284	243.60106	199.87036	194.81342	100.94968	
209	2.080	198.91554	194.75104	243.88040	199.32274	194.83261	101.42867	
210	2.090	198.95595	194.77660	244.34119	199.29413	194.71548	101.89706	
211	2.100	199.00667	194.79874	244.79842	199.54185	194.74156	102.29984	
212	2.110	198.88120	194.86363	245.21375	199.74188	194.67715	102.86231	
213	2.120	198.97786	194.79822	245.62212	199.75684	194.70622	103.10165	
214	2.130	199.11620	194.76508	246.04811	199.46504	194.70813	103.66524	
215	2.140	199.04013	194.76903	246.55267	199.56052	194.61469	104.10852	
216	2.150	199.12407	194.88783	246.87973	199.70631	194.58858	104.59472	
217	2.160	199.00102	194.87132	247.43483	199.86121	194.74161	104.91077	
218	2.170	199.13138	194.77301	247.90674	199.82076	194.70088	105.41990	
219	2.180	199.20206	194.81273	248.18417	199.58107	194.64590	105.92240	
220	2.190	199.16832	194.80917	248.55621	199.44965	194.68262	106.19530	
221	2.200	199.17545	194.89400	249.11560	199.53746	194.52660	106.51005	
222	2.210	198.96767	194.80638	249.59280	199.84267	194.48741	106.96005	
223	2.220	198.99846	194.83047	249.92325	199.45085	194.47899	107.65977	
224	2.230	199.08087	194.83278	250.15186	199.40942	194.43024	108.01382	
225	2.240	199.14514	194.89453	250.69833	199.33591	194.49657	108.39902	
226	2.250	198.85817	194.83601	251.13040	199.21986	194.41280	108.62210	
227	2.260	198.87889	194.77475	251.46414	199.50516	194.45462	108.85509	
228	2.270	198.88985	194.76089	251.85928	199.34468	194.40411	109.61869	
229	2.280	198.96297	194.68394	252.48561	199.27969	194.37109	110.13465	
230	2.290	198.75703	194.74942	252.83569	199.26047	194.36462	110.38368	
231	2.300	198.78320	194.74593	253.16055	199.27258	194.57474	110.69101	
232	2.310	198.89919	194.77541	253.74957	199.50604	194.51976	111.09293	
233	2.320	198.75987	194.69151	254.19154	199.29520	194.32974	111.74719	
234	2.330	198.79272	194.80447	254.47704	199.20909	194.46664	112.19199	
235	2.340	198.67599	194.71582	255.10399	199.55789	194.58771	112.56970	
236	2.350	198.90942	194.76868	255.61803	199.52660	194.56862	113.03686	
237	2.360	198.72200	194.76109	255.94441	199.34145	194.44217	113.44609	
238	2.370	198.69357	194.84090	256.19373	199.11850	194.48090	113.73129	
239	2.380	198.61522	194.71027	256.89621	199.49696	194.66884	114.33997	
240	2.390	198.72569	194.88985	257.24332	199.35042	194.53281	114.85093	
241	2.400	198.53578	194.94434	257.60498	199.54434	194.57681	115.23741	
242	2.410	198.46320	194.73604	258.10098	199.33574	194.56763	115.52966	
243	2.420	198.68810	194.88808	258.58197	199.25174	194.66174	115.86009	
244	2.430	198.66183	194.82259	258.91098	199.08249	194.58762	116.41840	
245	2.440	198.39571	194.82858	259.29929	199.26945	194.58397	116.94038	
246	2.450	198.44553	194.77521	259.79483	199.24434	194.67256	117.10486	
247	2.460	198.56288	194.89780	260.15677	199.10898	194.66835	117.77669	
248	2.470	198.54137	194.82362	260.50925	199.11691	194.56718	118.28758	
249	2.480	198.36391	194.73009	261.04056	199.03749	194.55518	118.49509	
250	2.490	198.42677	194.74332	261.59381	198.99519	194.65788	118.67641	
251	2.500	198.54778	194.92412	261.90872	199.54210	194.64384	119.23759	
252	2.510	198.40961	194.78412	262.23425	199.20247	194.68672	120.06466	
253	2.520	198.39708	194.62761	262.73700	199.28548	194.63719	120.38670	
254	2.530	198.52272	194.80556	263.25049	199.18500	194.64977	120.49573	
255	2.540	198.46681	194.88474	263.65924	199.25667	194.66034	120.96918	
256	2.550	198.40474	194.79134	264.06512	199.46289	194.65334	121.52455	
257	2.560	198.50345	194.74976	264.51367	199.36948	194.74840	122.05788	
258	2.570	198.44199	194.81450	264.96558	199.18336	194.69173	122.45287	
259	2.580	198.53232	194.80400	265.45145	199.35725	194.66771	122.87960	
260	2.590	198.37242	194.88571	265.97830	199.37743	194.77452	123.21548	
261	2.600	198.41844	194.94394	266.29449	203.84099	195.08189	121.13804	
262	2.610	198.47446	194.84978	266.64224	198.97852	194.71039	124.21030	
263	2.620	198.43164	194.78996	267.08020	199.08020	194.72472	124.73864	
264	2.630	198.50740	194.84262	267.56458	199.29785	194.76784	125.01523	
265	2.640	198.33871	194.92151	267.99756	199.41467	194.82916	125.20390	
266	2.650	198.39398	194.85744	268.34235	203.61049	194.93726	123.38107	
267	2.660	198.18544	194.92609	268.68961	198.84769	194.64792	126.12476	
268	2.670	198.39799	194.87277	269.11417	199.10004	194.78894	126.77047	
269	2.680	198.41713	194.82501	269.49109	199.32349	194.92142	126.96415	
270	2.690	198.44202	194.90327	270.00793	199.20395	194.71999	127.34246	
271	2.700	198.43381	194.97301	270.50558	199.08223	194.62167	127.86578	
272	2.710	198.34840	194.87181	270.84201	199.06065	194.67223	128.30185	
273	2.720	198.36107	194.89693	271.19986	199.03075	194.78799	128.54729	
274	2.730	198.54019	194.89059	271.58304	199.31276	194.80521	129.04880	
275	2.740	198.68434	194.90689	272.31104	199.53058	194.76971	129.57059	
276	2.750	198.52699	194.93903	272.68356	199.43037	194.81462	130.01010	
277	2.760	198.54898	194.99158	273.01550	199.36838	194.69989	130.46977	
278	2.770	198.37971	194.89949	273.43781	199.36494	194.78268	130.80409	
279	2.780	198.66255	194.82428	273.85660	199.63768	194.85355	131.31584	
280	2.790	198.79245	194.91768	274.37662	199.26819	194.84573	131.86096	
281	2.800	198.60553	194.99222	274.83826	199.23608	194.70764	132.29688	
282	2.810	198.62738	195.00548	275.18988	199.11470	194.75996	132.62682	
283	2.820	198.53270	194.98445	275.49628	199.08746	194.81622	133.12875	
284	2.830	198.52664	195.07687	275.95630	199.12494	194.85887	133.32529	
285	2.840	198.62175	195.01181	276.58170	198.94846	194.85381	134.12459	
286	2.850	198.51529	194.99644	276.99240	198.71321	194.89465	134.59024	
287	2.860	198.51164	195.00789	277.22687	198.79782	194.84373	134.93524	
288	2.870	198.53938	194.94493	277.62646	198.83342	194.77968	135.13643	
289	2.880	198.30916	195.02530	278.15106	203.28886	195.12094	133.34552	
290	2.890	198.27768	195.10326	278.60001	203.22420	195.06081	133.72437	
291	2.900	198.43375	195.13115	278.97488	198.69063	194.89685	136.83475	
292	2.910	198.59190	195.04503	279.39841	198.59631	194.89819	136.92229	
293	2.920	198.48946	194.93463	279.80322	198.88765	194.88771	137.22241	
294	2.930	198.41588	195.12987	280.21060	202.99442	195.11897	135.60361	
295	2.940	198.40224	195.15688	280.71716	203.32745	195.02618	135.97340	
296	2.950	198.54771	195.09099	281.23703	198.72720	194.87483	138.71539	
297	2.960	198.67416	194.98125	281.48706	198.86667	194.91548	139.08508	
298	2.970	198.77682	195.05263	281.84851	198.94403	194.81985	139.39386	
299	2.980	198.57968	195.10185	282.42303	198.97404	194.83705	139.94238	
300	2.990	198.49619	195.18518	282.78058	199.11823	194.75737	140.28734	
301	3.000	198.80176	195.10602	283.23288	198.97308	194.84094	140.69377	
302	3.010	198.93138	195.05435	283.70590	199.07175	194.84293	141.33597	
303	3.020	198.74557	194.99889	284.11298	199.09776	194.92801	141.53128	
304	3.030	198.52515	195.08931	284.46616	198.98012	194.79858	142.02513	
305	3.040	198.70204	195.20354	284.73120	198.82721	194.84596	142.44775	
306	3.050	198.80699	195.15826	285.51758	198.91650	194.79675	142.82217	
307	3.060	198.71548	195.07605	285.70499	198.85426	194.74976	143.24355	
308	3.070	198.72408	195.02139	286.04776	198.73242	194.72455	143.76933	
309	3.080	198.64793	195.19717	286.56366	198.72534	194.75909	144.08005	
310	3.090	198.55162	195.08066	287.04074	198.41328	194.83858	144.71637	
311	3.100	198.40977	194.96654	287.44916	198.44765	194.81471	144.96593	
312	3.110	198.39432	195.06345	287.71347	198.42088	194.69067	145.22855	
313	3.120	198.43716	195.05136	288.27475	198.46454	194.87039	145.73802	
314	3.130	198.45923	194.90463	288.72861	202.34355	195.06671	144.49121	
315	3.140	198.23505	194.90790	289.00687	198.35342	194.74417	146.82925	
316	3.150	198.30275	194.92296	289.27463	198.17680	194.84325	147.02380	
317	3.160	198.42732	195.01419	290.01413	198.29559	194.86783	147.17969	
318	3.170	198.39134	194.98590	290.15500	198.40582	194.92322	147.67191	
319	3.180	198.40799	194.95549	290.41574	198.63348	194.82738	147.94806	
320	3.190	198.56555	194.94817	290.72195	198.63670	194.79533	148.57742	
321	3.200	198.43762	194.79092	291.14142	198.60172	194.78389	148.66789	
